<?xml version="1.0" encoding="iso-8859-1"?>
<!-- Generator: Adobe Illustrator 18.0.0, SVG Export Plug-In . SVG Version: 6.00 Build 0)  -->
<!DOCTYPE svg PUBLIC "-//W3C//DTD SVG 1.1//EN" "http://www.w3.org/Graphics/SVG/1.1/DTD/svg11.dtd">
<svg version="1.1" id="Capa_1" xmlns="http://www.w3.org/2000/svg" xmlns:xlink="http://www.w3.org/1999/xlink" x="0px" y="0px"
	 viewBox="0 0 446.563 446.563" style="enable-background:new 0 0 446.563 446.563;" xml:space="preserve">
<g>
	<path d="M388.679,70.746v-2.13c0-4.803-1.866-9.303-5.24-12.659c-3.385-3.386-7.885-5.251-12.67-5.251
		c-9.876,0-17.91,8.035-17.91,17.91v2.13h-36.996v-2.13c0-4.803-1.866-9.303-5.24-12.659c-3.385-3.386-7.885-5.251-12.67-5.251
		c-9.876,0-17.91,8.035-17.91,17.91v2.13h-36.996v-2.13c0-4.802-1.865-9.302-5.24-12.66c-3.387-3.386-7.886-5.25-12.67-5.25
		c-9.875,0-17.91,8.035-17.91,17.91v2.13H170.23v-2.13c0-4.802-1.866-9.303-5.24-12.66c-3.386-3.386-7.885-5.25-12.67-5.25
		c-9.875,0-17.91,8.035-17.91,17.91v2.13H97.414v-2.13c0-4.802-1.866-9.303-5.24-12.66c-3.386-3.386-7.885-5.25-12.669-5.25
		c-9.875,0-17.91,8.035-17.91,17.91v2.13H25.618v6.703L0,379.885h25.618v15.972h420.944V70.746H388.679z M366.858,68.616
		c0-2.156,1.754-3.91,3.91-3.91c1.045,0,2.028,0.408,2.783,1.164c0.727,0.723,1.127,1.698,1.127,2.747v2.13h-7.82V68.616z
		 M294.042,68.616c0-2.156,1.754-3.91,3.91-3.91c1.339,0,2.245,0.625,2.783,1.164c0.727,0.723,1.127,1.698,1.127,2.747v2.13h-7.82
		V68.616z M221.226,68.616c0-2.156,1.754-3.91,3.91-3.91c1.34,0,2.246,0.625,2.783,1.162c0.727,0.723,1.127,1.699,1.127,2.748v2.13
		h-7.82V68.616z M148.41,68.616c0-2.156,1.754-3.91,3.91-3.91c1.339,0,2.246,0.625,2.783,1.163c0.727,0.723,1.127,1.699,1.127,2.748
		v2.13h-7.82V68.616z M75.594,68.616c0-2.156,1.754-3.91,3.91-3.91c1.339,0,2.246,0.625,2.783,1.163
		c0.727,0.723,1.127,1.699,1.127,2.748v2.13h-7.82V68.616z M15.236,365.885l10.382-122.564v122.564H15.236z M432.563,381.857H39.618
		V84.746h43.795v9.092c-7.533,2.842-12.916,10.105-12.916,18.621c0,10.981,8.934,19.916,19.916,19.916s19.916-8.934,19.916-19.916
		c0-8.515-5.382-15.779-12.916-18.621v-9.092h58.816v9.092c-7.533,2.842-12.916,10.105-12.916,18.621
		c0,10.981,8.934,19.916,19.916,19.916c10.981,0,19.915-8.934,19.915-19.916c0-8.515-5.382-15.778-12.915-18.62v-9.092h58.816v9.092
		c-7.533,2.842-12.916,10.105-12.916,18.621c0,10.981,8.934,19.916,19.916,19.916s19.915-8.934,19.915-19.916
		c0-8.515-5.382-15.778-12.915-18.621v-9.092h58.816v9.092c-7.533,2.842-12.916,10.105-12.916,18.621
		c0,10.981,8.935,19.916,19.916,19.916s19.915-8.934,19.915-19.916c0-8.515-5.382-15.778-12.915-18.621v-9.092h58.816v9.092
		c-7.533,2.842-12.916,10.105-12.916,18.621c0,10.981,8.935,19.916,19.916,19.916s19.915-8.934,19.915-19.916
		c0-8.515-5.382-15.778-12.915-18.621v-9.092h43.884V381.857z M96.329,112.459c0,3.262-2.654,5.916-5.916,5.916
		s-5.916-2.654-5.916-5.916s2.654-5.915,5.916-5.915S96.329,109.197,96.329,112.459z M169.145,112.459
		c0,3.262-2.653,5.916-5.915,5.916s-5.916-2.654-5.916-5.916s2.654-5.915,5.916-5.915S169.145,109.197,169.145,112.459z
		 M241.961,112.459c0,3.262-2.653,5.916-5.915,5.916s-5.915-2.654-5.915-5.916s2.653-5.915,5.915-5.915
		S241.961,109.197,241.961,112.459z M314.777,112.459c0,3.262-2.653,5.916-5.915,5.916s-5.916-2.654-5.916-5.916
		s2.654-5.915,5.916-5.915S314.777,109.197,314.777,112.459z M387.594,112.459c0,3.262-2.653,5.916-5.915,5.916
		s-5.916-2.654-5.916-5.916s2.654-5.915,5.916-5.915S387.594,109.197,387.594,112.459z"/>
	<path d="M66.243,354.885h339.694V160.706H66.243V354.885z M80.243,174.706h311.694v166.179H80.243V174.706z"/>
	<rect x="93.09" y="191.795" width="22" height="22"/>
	<rect x="134.34" y="191.795" width="22" height="22"/>
	<rect x="175.59" y="191.795" width="22" height="22"/>
	<rect x="216.84" y="191.795" width="22" height="22"/>
	<rect x="258.091" y="191.795" width="22" height="22"/>
	<rect x="357.091" y="191.795" width="22" height="22"/>
	<rect x="318.091" y="191.795" width="22" height="22"/>
	<rect x="93.09" y="228.462" width="22" height="22"/>
	<rect x="134.34" y="228.462" width="22" height="22"/>
	<rect x="175.59" y="228.462" width="22" height="22"/>
	<rect x="216.84" y="228.462" width="22" height="22"/>
	<rect x="258.091" y="228.462" width="22" height="22"/>
	<rect x="357.091" y="228.462" width="22" height="22"/>
	<rect x="318.091" y="228.462" width="22" height="22"/>
	<rect x="93.09" y="265.128" width="22" height="22"/>
	<rect x="134.34" y="265.128" width="22" height="22"/>
	<rect x="175.59" y="265.128" width="22" height="22"/>
	<rect x="216.84" y="265.128" width="22" height="22"/>
	<rect x="258.091" y="265.128" width="22" height="22"/>
	<rect x="357.091" y="265.128" width="22" height="22"/>
	<rect x="318.091" y="265.128" width="22" height="22"/>
	<rect x="93.09" y="301.795" width="22" height="22"/>
	<rect x="134.34" y="301.795" width="22" height="22"/>
	<rect x="175.59" y="301.795" width="22" height="22"/>
	<rect x="216.84" y="301.795" width="22" height="22"/>
	<rect x="258.091" y="301.795" width="22" height="22"/>
	<rect x="357.091" y="301.795" width="22" height="22"/>
	<rect x="318.091" y="301.795" width="22" height="22"/>
</g>
<g>
</g>
<g>
</g>
<g>
</g>
<g>
</g>
<g>
</g>
<g>
</g>
<g>
</g>
<g>
</g>
<g>
</g>
<g>
</g>
<g>
</g>
<g>
</g>
<g>
</g>
<g>
</g>
<g>
</g>
</svg>
